<svg xmlns="http://www.w3.org/2000/svg" width="238" height="48" fill="none" viewBox="0 0 238 48">
  <g clip-path="url(#a)">
    <path fill="#00AA3C" d="M12 0h24c6.63 0 12 5.37 12 12v24c0 6.63-5.37 12-12 12H12C5.37 48 0 42.63 0 36V12C0 5.37 5.37 0 12 0Z"/>
    <path fill="#242628" d="m39.65 21.95-8.2-8.2a2.903 2.903 0 0 0-4.1 0 2.903 2.903 0 0 0 0 4.1L33.5 24l-6.15 6.15a2.903 2.903 0 0 0 0 4.1 2.903 2.903 0 0 0 4.1 0l8.2-8.2a2.903 2.903 0 0 0 0-4.1Zm-9.23-5.13c-.57.57-1.48.57-2.05 0-.57-.57-.57-1.48 0-2.05.57-.57 1.48-.57 2.05 0 .57.57.57 1.49 0 2.05Zm-9.77 13.33L14.5 24l6.15-6.15a2.903 2.903 0 0 0 0-4.1 2.903 2.903 0 0 0-4.1 0l-8.2 8.2c-.71.71-.97 1.69-.8 2.6.11.55.37 1.07.8 1.5l8.2 8.2a2.903 2.903 0 0 0 4.1 0 2.903 2.903 0 0 0 0-4.1Zm-1.02 3.08c-.57.57-1.48.57-2.05 0-.57-.57-.57-1.48 0-2.05.57-.57 1.48-.57 2.05 0 .57.57.56 1.48 0 2.05ZM62 31.96v-14.3h2.65v1.92h.13c.09-.66.35-1.19.78-1.59.43-.4.97-.6 1.61-.6.59 0 1.1.2 1.53.6.43.4.73.93.88 1.59h.08c.1-.66.38-1.19.82-1.59.44-.4.99-.6 1.65-.6.85 0 1.55.34 2.09 1.03.55.69.82 1.56.82 2.64v10.89h-2.81V21.3c0-1-.42-1.51-1.25-1.51-.83 0-1.25.5-1.25 1.51v10.66H67.3V21.3c0-1-.42-1.51-1.25-1.51-.82 0-1.22.5-1.22 1.51v10.66H62Zm21.63.26c-1.21 0-2.27-.23-3.17-.7-.9-.47-1.6-1.12-2.09-1.96-.49-.84-.74-1.82-.74-2.95v-3.59c0-1.13.25-2.11.74-2.95.49-.84 1.19-1.5 2.09-1.96.9-.47 1.96-.7 3.17-.7 1.2 0 2.24.23 3.13.7.89.47 1.59 1.12 2.08 1.96.49.84.74 1.82.74 2.95v2.57h-8.81v1.01c0 2.03.96 3.04 2.89 3.04 1.49 0 2.37-.49 2.63-1.48h3.2c-.24 1.23-.9 2.21-1.96 2.95-1.08.74-2.37 1.11-3.9 1.11Zm-2.86-9.21v.55l5.67-.03v-.55c0-.99-.23-1.75-.7-2.27-.47-.53-1.17-.79-2.11-.79-.95 0-1.67.27-2.15.81-.47.53-.71 1.29-.71 2.28Zm16.35 9.21c-1.39 0-2.51-.49-3.38-1.48-.87-.99-1.3-2.31-1.3-3.98v-3.87c0-1.68.43-3.02 1.29-4 .86-.99 1.99-1.48 3.39-1.48.99 0 1.82.25 2.5.74.68.49 1.14 1.19 1.4 2.09h.05l-.1-3.25v-4h3.25v18.98h-3.17V29.4h-.03c-.26.9-.72 1.6-1.39 2.09-.67.49-1.5.73-2.51.73Zm1.23-2.81c.83 0 1.48-.25 1.94-.75.46-.5.69-1.21.69-2.13V23.1c0-.92-.23-1.63-.69-2.13-.46-.5-1.11-.75-1.94-.75-.83 0-1.48.24-1.95.73s-.7 1.18-.7 2.08v3.59c0 .9.23 1.59.7 2.08.47.46 1.11.71 1.95.71Zm8.81 2.55v-2.94h4.89V20.6h-4.37v-2.94h7.62v11.36h4.39v2.94h-12.53Zm6.29-16.7c-.66 0-1.18-.17-1.56-.51-.38-.34-.57-.79-.57-1.36 0-.57.19-1.03.57-1.37.38-.34.9-.51 1.56-.51s1.18.17 1.56.51c.38.34.57.79.57 1.37 0 .57-.19 1.03-.57 1.36-.38.34-.9.51-1.56.51Zm12.77 16.96c-1.47 0-2.63-.39-3.48-1.16-.85-.77-1.27-1.82-1.27-3.16 0-1.4.49-2.49 1.46-3.26.97-.77 2.32-1.16 4.06-1.16h3.43v-1.2c0-.69-.23-1.23-.68-1.61-.45-.38-1.08-.57-1.9-.57-.75 0-1.36.16-1.83.47-.48.31-.74.73-.79 1.25h-3.09c.07-1.33.64-2.4 1.7-3.21 1.07-.81 2.44-1.21 4.12-1.21 1.77 0 3.16.43 4.19 1.3 1.02.87 1.53 2.05 1.53 3.56v9.7h-3.15v-2.42h-.05c-.19.83-.66 1.49-1.4 1.96-.74.47-1.71.72-2.85.72Zm1.06-2.42c.92 0 1.67-.23 2.25-.69.58-.46.87-1.07.87-1.83v-1.72h-3.35c-.73 0-1.3.19-1.72.56-.42.37-.62.88-.62 1.52 0 .68.23 1.21.69 1.59.46.38 1.09.57 1.88.57Zm10.92-4.92v-3.02h8.32v3.02h-8.32Zm19.06 7.34c-1.21 0-2.28-.23-3.18-.69-.91-.46-1.62-1.11-2.12-1.95-.5-.84-.75-1.83-.75-2.98v-3.59c0-1.14.25-2.14.75-2.98.5-.84 1.21-1.49 2.12-1.95.91-.46 1.97-.69 3.18-.69 1.8 0 3.24.46 4.32 1.39 1.07.93 1.64 2.19 1.69 3.78h-3.17c-.05-.74-.33-1.32-.84-1.73-.51-.41-1.17-.61-1.99-.61-.87 0-1.55.24-2.05.71-.5.48-.75 1.16-.75 2.04v3.61c0 .88.25 1.57.75 2.05.5.49 1.19.73 2.05.73.83 0 1.5-.2 2-.61s.78-.98.83-1.73h3.17c-.05 1.6-.62 2.86-1.69 3.78-1.08.95-2.52 1.42-4.32 1.42Zm8.95-.26V12.98h3.25v4.68l-.08 2.73h.05c.16-.94.56-1.67 1.22-2.2.66-.53 1.52-.79 2.57-.79 1.4 0 2.53.47 3.37 1.4.84.94 1.26 2.19 1.26 3.77v9.39h-3.25v-9.05c0-.87-.23-1.53-.69-2-.46-.47-1.08-.7-1.86-.7-.81 0-1.45.24-1.91.73-.46.49-.69 1.18-.69 2.08v8.94h-3.24Zm14.71 0v-14.3h3.17v2.73h.08c.14-.94.55-1.67 1.25-2.2.69-.53 1.58-.79 2.65-.79 1.47 0 2.65.48 3.54 1.44.88.96 1.33 2.28 1.33 3.94v1.17h-3.41v-.94c0-.88-.23-1.57-.69-2.07-.46-.49-1.12-.74-1.99-.74-1.79 0-2.68 1-2.68 2.99v8.76h-3.25v.01Zm20.2.23c-1.84 0-3.29-.51-4.37-1.52-1.07-1.01-1.61-2.38-1.61-4.09v-3.54c0-1.72.54-3.08 1.61-4.1 1.08-1.01 2.53-1.52 4.37-1.52 1.84 0 3.29.51 4.37 1.52 1.07 1.01 1.61 2.37 1.61 4.07v3.56c0 1.72-.54 3.08-1.61 4.09-1.08 1.02-2.53 1.53-4.37 1.53Zm0-2.83c.87 0 1.54-.24 2.02-.71.48-.48.71-1.17.71-2.07v-3.54c0-.9-.24-1.59-.71-2.07-.48-.48-1.15-.72-2.02-.72-.87 0-1.54.24-2.01.72-.48.48-.71 1.17-.71 2.07v3.54c0 .9.24 1.59.71 2.07.47.47 1.14.71 2.01.71Zm8.56 2.6v-14.3h2.65v1.92h.13c.09-.66.35-1.19.78-1.59.43-.4.97-.6 1.61-.6.59 0 1.1.2 1.53.6.43.4.73.93.88 1.59h.08c.1-.66.38-1.19.82-1.59.44-.4.99-.6 1.65-.6.85 0 1.55.34 2.09 1.03.55.69.82 1.56.82 2.64v10.89h-2.81V21.3c0-1-.42-1.51-1.25-1.51-.83 0-1.25.5-1.25 1.51v10.66h-2.44V21.3c0-1-.42-1.51-1.25-1.51-.82 0-1.22.5-1.22 1.51v10.66h-2.82Zm21.63.26c-1.21 0-2.27-.23-3.17-.7-.9-.47-1.6-1.12-2.09-1.96-.49-.84-.74-1.82-.74-2.95v-3.59c0-1.13.25-2.11.74-2.95.49-.84 1.19-1.5 2.09-1.96.9-.47 1.96-.7 3.17-.7 1.2 0 2.24.23 3.13.7.89.47 1.59 1.12 2.08 1.96.49.84.74 1.82.74 2.95v2.57h-8.81v1.01c0 2.03.96 3.04 2.89 3.04 1.49 0 2.37-.49 2.63-1.48h3.2c-.24 1.23-.9 2.21-1.96 2.95-1.08.74-2.38 1.11-3.9 1.11Zm-2.86-9.21v.55l5.67-.03v-.55c0-.99-.23-1.75-.7-2.27-.47-.53-1.17-.79-2.11-.79-.95 0-1.67.27-2.15.81-.47.53-.71 1.29-.71 2.28Z"/>
  </g>
  <defs>
    <clipPath id="a">
      <path fill="#fff" d="M0 0h238v48H0z"/>
    </clipPath>
  </defs>
</svg>
