<svg xmlns="http://www.w3.org/2000/svg" width="1200" height="630" viewBox="0 0 1200 630">
  <rect width="1200" height="630" fill="#00AA3C"/>
  <g transform="translate(600,315) scale(8) translate(-24,-24)">
    <path fill="#242628" d="m39.65 21.95-8.2-8.2a2.903 2.903 0 0 0-4.1 0 2.903 2.903 0 0 0 0 4.1L33.5 24l-6.15 6.15a2.903 2.903 0 0 0 0 4.1 2.903 2.903 0 0 0 4.1 0l8.2-8.2a2.903 2.903 0 0 0 0-4.1Zm-9.23-5.13c-.57.57-1.48.57-2.05 0-.57-.57-.57-1.48 0-2.05.57-.57 1.48-.57 2.05 0 .57.57.57 1.49 0 2.05Zm-9.77 13.33L14.5 24l6.15-6.15a2.903 2.903 0 0 0 0-4.1 2.903 2.903 0 0 0-4.1 0l-8.2 8.2c-.71.71-.97 1.69-.8 2.6.11.55.37 1.07.8 1.5l8.2 8.2a2.903 2.903 0 0 0 4.1 0 2.903 2.903 0 0 0 0-4.1Zm-1.02 3.08c-.57.57-1.48.57-2.05 0-.57-.57-.57-1.48 0-2.05.57-.57 1.48-.57 2.05 0 .57.57.56 1.48 0 2.05Z"/>
  </g>
</svg>
