<?xml version="1.0" encoding="UTF-8"?>
<svg slot="pause" xmlns="http://www.w3.org/2000/svg" viewBox="0 0 24 24">
    <path d="M 8.75 0 L 1.847656 0 C 1.265625 0 0.796875 0.46875 0.796875 1.046875 L 0.796875 22.949219 C 0.796875 23.53125 1.265625 24 1.847656 24 L 8.75 24 C 9.332031 24 9.800781 23.53125 9.800781 22.949219 L 9.800781 1.046875 C 9.800781 0.46875 9.332031 0 8.75 0 Z M 7.703125 21.902344 L 2.894531 21.902344 L 2.894531 2.097656 L 7.703125 2.097656 Z M 7.703125 21.902344 "/>
    <path d="M 22.152344 0 L 15.25 0 C 14.671875 0 14.199219 0.46875 14.199219 1.046875 L 14.199219 22.949219 C 14.199219 23.53125 14.671875 24 15.25 24 L 22.152344 24 C 22.730469 24 23.203125 23.53125 23.203125 22.949219 L 23.203125 1.046875 C 23.203125 0.46875 22.730469 0 22.152344 0 Z M 21.105469 21.902344 L 16.296875 21.902344 L 16.296875 2.097656 L 21.105469 2.097656 Z M 21.105469 21.902344 "/>
</svg>