<svg xmlns="http://www.w3.org/2000/svg" viewBox="0 0 20 18"><path d="M14.73,11.09a1.4,1.4,0,0,1-1,.37,1.58,1.58,0,0,1-1.27-.58A3,3,0,0,1,12,9a2.8,2.8,0,0,1,.5-1.85,1.63,1.63,0,0,1,1.29-.57,1.47,1.47,0,0,1,1.51,1.2l1.43-.34A2.89,2.89,0,0,0,16,6.07a3,3,0,0,0-2.14-.78,3.14,3.14,0,0,0-2.42,1,3.91,3.91,0,0,0-.93,2.78,3.74,3.74,0,0,0,.92,2.66,3.07,3.07,0,0,0,2.34,1,3.07,3.07,0,0,0,1.91-.57,3.17,3.17,0,0,0,1.07-1.74l-1.4-.45A2.06,2.06,0,0,1,14.73,11.09Zm-7.22,0a1.43,1.43,0,0,1-1,.37,1.58,1.58,0,0,1-1.27-.58A3,3,0,0,1,4.76,9a2.8,2.8,0,0,1,.5-1.85,1.63,1.63,0,0,1,1.29-.57,1.47,1.47,0,0,1,1.51,1.2l1.43-.34a2.81,2.81,0,0,0-.74-1.32,2.94,2.94,0,0,0-2.13-.78,3.18,3.18,0,0,0-2.43,1,4,4,0,0,0-.92,2.78,3.74,3.74,0,0,0,.92,2.66,3.07,3.07,0,0,0,2.34,1,3.07,3.07,0,0,0,1.91-.57,3.23,3.23,0,0,0,1.07-1.74l-1.4-.45A2.06,2.06,0,0,1,7.51,11.09ZM19.83,2.68A2.59,2.59,0,0,0,17.53.17C15.72.05,12.86,0,10,0S4.28.05,2.47.17A2.59,2.59,0,0,0,.17,2.68a115.68,115.68,0,0,0,0,12.63,2.57,2.57,0,0,0,2.3,2.5c1.81.13,4.67.19,7.53.19s5.72-.06,7.53-.19a2.57,2.57,0,0,0,2.3-2.5A115.68,115.68,0,0,0,19.83,2.68ZM18.34,15.21a1.11,1.11,0,0,1-.91,1.11c-1.67.11-4.45.18-7.43.18s-5.76-.07-7.43-.18a1.11,1.11,0,0,1-.91-1.11,122.7,122.7,0,0,1,0-12.43,1.11,1.11,0,0,1,.91-1.11C4.24,1.56,7,1.49,10,1.49s5.76.07,7.43.18a1.11,1.11,0,0,1,.91,1.11A122.7,122.7,0,0,1,18.34,15.21Z"/></svg>
