<svg xmlns="http://www.w3.org/2000/svg" viewBox="0 0 20 18"><path d="M19.83,2.68a2.58,2.58,0,0,0-2.3-2.5C13.91-.06,6.09-.06,2.47.18a2.58,2.58,0,0,0-2.3,2.5,115.86,115.86,0,0,0,0,12.64,2.58,2.58,0,0,0,2.3,2.5c3.62.24,11.44.24,15.06,0a2.58,2.58,0,0,0,2.3-2.5A115.86,115.86,0,0,0,19.83,2.68ZM8.44,12.13a3.07,3.07,0,0,1-1.91.57,3.06,3.06,0,0,1-2.34-1,3.75,3.75,0,0,1-.92-2.67,3.92,3.92,0,0,1,.92-2.77,3.18,3.18,0,0,1,2.43-1,2.94,2.94,0,0,1,2.13.78,2.73,2.73,0,0,1,.74,1.31l-1.43.35A1.49,1.49,0,0,0,6.55,6.53a1.61,1.61,0,0,0-1.29.58A2.79,2.79,0,0,0,4.76,9a3,3,0,0,0,.49,1.93,1.61,1.61,0,0,0,1.27.58,1.48,1.48,0,0,0,1-.37A2.1,2.1,0,0,0,8.11,10l1.4.44A3.23,3.23,0,0,1,8.44,12.13Zm7.22,0a3.07,3.07,0,0,1-1.91.57,3.06,3.06,0,0,1-2.34-1,3.75,3.75,0,0,1-.92-2.67,3.88,3.88,0,0,1,.93-2.77,3.14,3.14,0,0,1,2.42-1A3,3,0,0,1,16,6.08a2.8,2.8,0,0,1,.73,1.31l-1.43.35a1.49,1.49,0,0,0-1.51-1.21,1.61,1.61,0,0,0-1.29.58A2.79,2.79,0,0,0,12,9a3,3,0,0,0,.49,1.93,1.61,1.61,0,0,0,1.27.58,1.44,1.44,0,0,0,1-.37,2.1,2.1,0,0,0,.6-1.15l1.4.44A3.17,3.17,0,0,1,15.66,12.13Z"/></svg>
